HIERARCHY
ROOT Hips
{
	OFFSET 0.000000 0.000000 0.000000
	CHANNELS 6 Xposition Yposition Zposition Zrotation Yrotation Xrotation 
	JOINT LeftUpLeg_virtual
	{
		OFFSET 0.000000 0.000000 0.000000
		CHANNELS 3 Zrotation Yrotation Xrotation
		JOINT LeftUpLeg
		{
			OFFSET 10.205400 -3.823500 0.155100
			CHANNELS 3 Zrotation Yrotation Xrotation
			JOINT LeftLeg
			{
				OFFSET 0.708757 -12.982077 0.567790
				CHANNELS 3 Zrotation Yrotation Xrotation
				JOINT LeftFoot
				{
					OFFSET -0.708756 -10.717838 -2.184338
					CHANNELS 3 Zrotation Yrotation Xrotation
					JOINT LeftToeBase
					{
						OFFSET 0.108149 -7.191104 7.560241
						CHANNELS 3 Zrotation Yrotation Xrotation
						End Site
						{
							OFFSET 0.000000 0.000000 0.000000
						}
					}
				}
			}
		}
	}
	JOINT RightUpLeg_virtual
	{
		OFFSET 0.000000 0.000000 0.000000
		CHANNELS 3 Zrotation Yrotation Xrotation
		JOINT RightUpLeg
		{
			OFFSET -10.205400 -3.823500 0.005500
			CHANNELS 3 Zrotation Yrotation Xrotation
			JOINT RightLeg
			{
				OFFSET -0.708756 -12.982134 0.610632
				CHANNELS 3 Zrotation Yrotation Xrotation
				JOINT RightFoot
				{
					OFFSET 0.708754 -10.717769 -1.945823
					CHANNELS 3 Zrotation Yrotation Xrotation
					JOINT RightToeBase
					{
						OFFSET -0.108140 -7.191069 7.372968
						CHANNELS 3 Zrotation Yrotation Xrotation
						End Site
						{
							OFFSET 0.000000 0.000000 0.000000
						}
					}
				}
			}
		}
	}
	JOINT Spine_virtual
	{
		OFFSET 0.000000 0.000000 0.000000
		CHANNELS 3 Zrotation Yrotation Xrotation
		JOINT Spine
		{
			OFFSET 0.000000 6.876099 0.125700
			CHANNELS 3 Zrotation Yrotation Xrotation
			JOINT Spine1
			{
				OFFSET 0.000000 8.022060 0.146608
				CHANNELS 3 Zrotation Yrotation Xrotation
				JOINT Spine2
				{
					OFFSET 0.000000 9.168068 0.167552
					CHANNELS 3 Zrotation Yrotation Xrotation
					JOINT Neck_virtual
					{
						OFFSET 0.000000 0.000000 0.000000
						CHANNELS 3 Zrotation Yrotation Xrotation
						JOINT Neck
						{
							OFFSET 0.000000 10.314075 0.188496
							CHANNELS 3 Zrotation Yrotation Xrotation
							JOINT Head
							{
								OFFSET 0.000000 7.643700 -2.377400
								CHANNELS 3 Zrotation Yrotation Xrotation
								End Site
								{
									OFFSET 0.000000 0.000000 0.000000
								}
							}
						}
					}
					JOINT LeftShoulder_virtual
					{
						OFFSET 0.000000 0.000000 0.000000
						CHANNELS 3 Zrotation Yrotation Xrotation
						JOINT LeftShoulder
						{
							OFFSET 4.392200 8.824978 0.174984
							CHANNELS 3 Zrotation Yrotation Xrotation
							JOINT LeftArm
							{
								OFFSET 8.771219 -2.981674 -0.026999
								CHANNELS 3 Zrotation Yrotation Xrotation
								JOINT LeftForeArm
								{
									OFFSET 8.512804 0.000000 -0.000000
									CHANNELS 3 Zrotation Yrotation Xrotation
									JOINT LeftHand
									{
										OFFSET 18.484802 0.000000 -0.000000
										CHANNELS 3 Zrotation Yrotation Xrotation
										End Site
										{
											OFFSET 0.000000 0.000000 0.000000
										}
									}
								}
							}
						}
					}
					JOINT RightShoulder_virtual
					{
						OFFSET 0.000000 0.000000 0.000000
						CHANNELS 3 Zrotation Yrotation Xrotation
						JOINT RightShoulder
						{
							OFFSET -4.392200 8.824993 0.141379
							CHANNELS 3 Zrotation Yrotation Xrotation
							JOINT RightArm
							{
								OFFSET -8.771282 -2.981682 -0.094208
								CHANNELS 3 Zrotation Yrotation Xrotation
								JOINT RightForeArm
								{
									OFFSET -8.494598 0.000000 0.000000
									CHANNELS 3 Zrotation Yrotation Xrotation
									JOINT RightHand
									{
										OFFSET -18.483803 0.000000 0.000001
										CHANNELS 3 Zrotation Yrotation Xrotation
										End Site
										{
											OFFSET 0.000000 0.000000 0.000000
										}
									}
								}
							}
						}
					}
				}
			}
		}
	}
}
MOTION
Frames: 10
Frame Time: 0.033333
-45.560589 36.218590 69.925079 -179.898686 42.224984 179.749624 -0.615499 -5.650619 7.384900 -3.662343 -3.604498 -25.665862 15.466366 1.946878 17.890210 -10.515906 -4.129932 16.160409 0.000000 0.000000 0.000000 5.131888 -4.751057 5.458297 5.257061 8.049297 -15.699116 -6.675377 0.759482 15.689928 2.325470 7.963389 16.976754 0.000000 0.000000 0.000000 3.165332 -0.492441 -1.860237 3.477071 0.636770 -12.612678 -2.005473 -2.426456 10.863955 0.000964 -0.023620 -0.103130 -2.459693 -0.181838 13.265451 -8.149679 0.362467 19.146858 0.000000 0.000000 0.000000 -0.177709 0.511350 9.844494 -11.063655 -1.389098 3.699575 -56.860072 16.904455 14.818789 1.424368 -42.983108 11.347663 0.000000 0.000000 0.000000 -4.957223 1.881633 8.958417 26.099077 3.905818 2.769895 53.865303 -17.623717 2.646009 -5.515556 31.572498 -2.324985 0.000000 0.000000 0.000000 
-45.541763 36.218670 69.590767 -179.931526 42.546082 179.614659 -0.711408 -5.749675 7.392079 -3.430252 -3.480009 -25.745044 15.635906 1.743300 17.668683 -11.098286 -4.387570 16.125686 0.000000 0.000000 0.000000 5.310274 -4.963146 5.493966 5.381272 7.625790 -15.637327 -6.668950 0.582980 15.992966 1.834605 7.595873 17.273369 0.000000 0.000000 0.000000 3.179011 -0.484540 -1.940957 3.405032 0.677779 -12.779046 -1.875619 -2.389045 10.741456 -0.012342 -0.008844 -0.025210 -2.421613 -0.101372 13.021955 -8.114791 0.462183 19.090394 0.000000 0.000000 0.000000 -0.159205 0.523696 9.641096 -11.006983 -1.432240 3.657944 -56.753988 16.846984 14.619094 1.428585 -43.095984 11.285030 0.000000 0.000000 0.000000 -4.965317 1.885599 8.895216 26.069690 3.918277 2.722035 53.900492 -17.520803 2.540148 -5.518820 31.705936 -2.356837 0.000000 0.000000 0.000000 
-45.535904 36.251705 69.175507 -179.942659 42.687221 179.667347 -0.916897 -5.523175 7.485892 -3.686937 -2.917390 -25.446519 15.457864 2.059974 17.603163 -11.462837 -4.733891 16.402732 0.000000 0.000000 0.000000 5.189591 -4.896819 5.574798 5.224086 7.347787 -15.271285 -6.739590 0.734337 16.127444 1.692559 7.454133 17.032262 0.000000 0.000000 0.000000 3.142870 -0.323178 -2.212698 3.360319 0.628588 -13.057758 -1.879390 -2.547338 10.710625 0.032277 -0.059990 -0.176965 -2.369183 -0.128901 13.072463 -8.065927 0.395432 19.118891 0.000000 0.000000 0.000000 -0.111692 0.455534 9.712516 -11.003353 -1.499953 3.585273 -56.526096 16.669743 14.350810 1.436223 -43.209443 11.203593 0.000000 0.000000 0.000000 -4.877298 1.790780 8.899573 26.123576 3.806953 2.762819 53.925177 -17.451663 2.472360 -5.638809 31.923474 -2.465095 0.000000 0.000000 0.000000 
-45.553402 36.288090 68.758461 -179.907237 43.033262 179.639644 -0.928368 -5.251706 7.549231 -4.143087 -2.210316 -25.148174 14.918356 2.564797 17.491797 -11.364538 -4.657944 16.595271 0.000000 0.000000 0.000000 5.023683 -4.623327 5.733115 4.930507 7.347207 -14.696253 -6.795134 0.902824 16.070928 1.463240 7.212065 16.564821 0.000000 0.000000 0.000000 3.069739 -0.255531 -2.240252 3.353818 0.617209 -13.258966 -1.725748 -2.587427 10.543874 -0.001361 -0.041643 -0.088645 -2.276530 -0.360437 13.009453 -7.876728 0.231383 19.174943 0.000000 0.000000 0.000000 -0.042481 0.312656 9.696891 -11.069636 -1.641346 3.455608 -56.328652 16.391242 14.167259 1.291998 -43.368430 11.240028 0.000000 0.000000 0.000000 -4.691823 1.631269 8.769778 26.232856 3.679836 2.784378 53.983172 -17.342103 2.268015 -5.747777 32.100209 -2.558824 0.000000 0.000000 0.000000 
-45.595963 36.314884 68.378151 179.901281 43.548268 179.602420 -0.998711 -4.969075 7.659880 -4.781315 -1.626632 -24.934657 14.368981 3.272814 17.434384 -10.917317 -4.384693 16.658823 0.000000 0.000000 0.000000 4.783116 -4.146937 5.851412 4.545984 7.364585 -14.409522 -6.930019 1.063118 16.152948 1.503668 7.198066 16.071947 0.000000 0.000000 0.000000 2.911272 -0.103622 -2.286171 3.259126 0.589382 -13.490938 -1.667710 -2.654984 10.457323 0.024568 -0.040899 -0.007035 -2.104860 -0.372225 12.785287 -7.540001 -0.041359 19.077504 0.000000 0.000000 0.000000 0.043840 0.262265 9.466260 -11.136944 -1.624831 3.310787 -56.203421 16.235575 14.043564 1.298862 -43.555413 11.139376 0.000000 0.000000 0.000000 -4.578039 1.578597 8.612910 26.338150 3.656161 2.850163 53.934466 -17.417367 2.334214 -5.715644 32.130870 -2.458455 0.000000 0.000000 0.000000 
-45.667126 36.326656 68.055252 -179.956947 44.025262 179.717249 -0.843471 -4.766004 7.860031 -5.575869 -0.800524 -24.795953 14.284941 3.897772 17.444880 -10.825639 -4.017629 16.708355 0.000000 0.000000 0.000000 4.806883 -3.868976 6.094151 4.197499 7.419075 -14.292097 -7.050271 1.247565 16.138617 1.688593 7.290973 15.707067 0.000000 0.000000 0.000000 2.938920 0.004730 -2.186609 3.242195 0.574820 -13.635236 -1.575489 -2.753099 10.352163 0.061271 -0.080953 -0.075559 -2.025788 -0.226442 12.622342 -7.133006 -0.156383 18.910359 0.000000 0.000000 0.000000 0.061507 0.208404 9.401037 -11.227675 -1.578450 3.109647 -56.189521 16.201574 14.051725 1.239753 -43.796150 11.093893 0.000000 0.000000 0.000000 -4.520531 1.526321 8.572384 26.460778 3.558055 2.885987 53.814029 -17.648934 2.609333 -5.786654 31.992739 -2.468996 0.000000 0.000000 0.000000 
-45.767326 36.328678 67.749702 -179.830835 44.554526 179.804375 -0.745614 -4.663890 8.143744 -6.497751 0.172280 -24.787342 14.440500 4.285294 17.634693 -10.844929 -3.613976 16.582818 0.000000 0.000000 0.000000 4.750764 -3.653440 6.427468 3.826707 7.690198 -14.330469 -7.323922 1.537898 16.017062 2.011286 7.447660 15.543383 0.000000 0.000000 0.000000 2.957467 0.175009 -2.021027 3.171400 0.638934 -13.678469 -1.451225 -2.823605 10.177165 0.042389 -0.106095 -0.054190 -1.947929 -0.335480 12.472098 -6.614159 -0.492417 18.832853 0.000000 0.000000 0.000000 0.130638 0.129614 9.292009 -11.322201 -1.524696 2.869231 -56.297903 16.308140 14.101762 1.323054 -44.059938 10.838084 0.000000 0.000000 0.000000 -4.485987 1.427525 8.473334 26.604453 3.493813 2.880820 53.551863 -17.959421 3.075511 -5.789478 31.693683 -2.389198 0.000000 0.000000 0.000000 
-45.896774 36.323296 67.440651 -179.862336 45.147035 179.759801 -0.779137 -4.723074 8.429621 -7.461586 0.836963 -24.897564 14.845478 4.815914 18.076891 -10.898598 -3.361056 16.271228 0.000000 0.000000 0.000000 4.620317 -3.586733 6.749918 3.334605 8.499720 -14.393497 -7.590840 2.333885 15.679534 2.409730 7.567608 15.565246 0.000000 0.000000 0.000000 2.925389 0.292180 -1.868126 3.080663 0.640005 -13.641090 -1.397082 -2.908276 9.995280 0.039782 -0.146780 -0.054985 -1.855277 -0.489320 12.342826 -5.992093 -0.810575 18.638130 0.000000 0.000000 0.000000 0.226469 0.085870 9.228872 -11.394344 -1.339187 2.675166 -56.661497 16.598312 14.022778 1.275347 -44.241557 10.736579 0.000000 0.000000 0.000000 -4.414167 1.400381 8.426071 26.734014 3.401918 2.867373 53.191922 -18.284314 3.497277 -5.800153 31.310113 -2.257018 0.000000 0.000000 0.000000 
-46.060627 36.320484 67.096169 -179.905462 45.885334 179.820262 -0.844119 -4.785364 8.670072 -8.328793 1.317273 -25.105433 15.458557 6.045896 18.668497 -11.038423 -3.249683 16.013822 0.000000 0.000000 0.000000 4.537853 -3.584924 7.048229 2.810804 9.971617 -14.729984 -8.495951 3.218622 15.741552 3.113553 7.753573 15.397927 0.000000 0.000000 0.000000 2.872074 0.356189 -1.865774 2.969350 0.700334 -13.593945 -1.309932 -2.952086 9.969400 0.028235 -0.132387 -0.046466 -1.734752 -0.557802 12.298608 -5.381199 -1.316666 18.548318 0.000000 0.000000 0.000000 0.329165 0.028402 9.149380 -11.418072 -1.201901 2.432432 -57.090870 16.960881 13.990123 1.300802 -44.190344 10.556517 0.000000 0.000000 0.000000 -4.318703 1.312455 8.320070 26.823543 3.249149 2.822100 52.753178 -18.571708 3.821347 -5.856666 30.836832 -2.138008 0.000000 0.000000 0.000000 
-46.248585 36.307014 66.735161 -179.950309 46.864578 179.709941 -0.903053 -4.667021 9.006963 -9.187761 1.821194 -25.247151 16.129442 7.311746 19.453046 -11.057370 -3.222330 15.319274 0.000000 0.000000 0.000000 4.354622 -3.397988 7.366290 2.301772 11.645798 -14.939231 -9.054273 4.655190 15.909315 3.451101 7.619003 15.054136 0.000000 0.000000 0.000000 2.792285 0.285238 -1.725588 2.893587 0.796324 -13.344385 -1.177179 -2.919950 9.792366 0.005399 -0.053986 -0.033051 -1.637245 -0.574862 12.313743 -4.743402 -1.760678 18.364027 0.000000 0.000000 0.000000 0.421751 -0.042750 9.131775 -11.411938 -1.128100 2.237480 -57.516927 17.303709 14.077320 1.498149 -43.856371 10.222902 0.000000 0.000000 0.000000 -4.221853 1.290266 8.267217 26.874245 3.070294 2.732513 52.353895 -18.828805 3.942065 -5.960949 30.370177 -2.015706 0.000000 0.000000 0.000000 
